
<svg xmlns="http://www.w3.org/2000/svg" version="1.1" xmlns:xlink="http://www.w3.org/1999/xlink" preserveAspectRatio="none" x="0px" y="0px" width="720px" height="720px" viewBox="0 0 720 720">
<defs>
<g id="Layer0_0_FILL">
<path fill="#000000" stroke="none" d="
M 85.8 77.65
L 85.8 71.65 68.5 71.65 68.5 42.6 61.75 42.6 61.75 77.65 85.8 77.65
M 56.85 42.6
L 32.8 42.6 32.8 77.65 56.85 77.65 56.85 42.6
M 50.55 48.6
L 50.55 71.65 39.55 71.65 39.55 48.6 50.55 48.6
M 27.9 42.6
L 21.6 42.6 21.6 62.25 10.6 42.6 3.85 42.6 3.85 77.65 10.6 77.65 10.6 57.4 21.6 77.65 27.9 77.65 27.9 42.6
M -1.05 42.6
L -7.35 42.6 -18.35 57.25 -18.35 42.6 -25.1 42.6 -25.1 77.65 -18.35 77.65 -18.35 63 -7.35 77.65 -1.05 77.65 -12.8 59.7 -1.05 42.6
M -30 42.6
L -36.35 42.6 -43.45 61.8 -50.25 42.6 -57 42.6 -57 77.65 -50.25 77.65 -50.25 63 -45.2 77.65 -41.25 77.65 -36.35 63 -36.35 77.65 -30 77.65 -30 42.6
M -79.2 48.6
L -68.2 48.6 -68.2 53.15 -76.95 53.15 -76.95 67.35 -61.9 67.35 -61.9 42.6 -85.95 42.6 -85.95 77.65 -61.9 77.65 -61.9 71.65 -79.2 71.65 -79.2 48.6
M -68.2 57.85
L -68.2 63 -72.25 63 -72.25 57.85 -68.2 57.85
M -62.6 -25
L -62.6 -12.5 -37.6 -12.5 -37.6 -6.25 -62.6 -6.25 -62.6 25 -25.1 25 -25.1 -25 -62.6 -25
M -37.6 6.25
L -37.6 12.5 -50.1 12.5 -50.1 6.25 -37.6 6.25
M -118.85 -12.5
L -106.35 -12.5 -106.35 25 -93.85 25 -93.85 -12.5 -81.35 -12.5 -81.35 25 -68.85 25 -68.85 -25 -131.35 -25 -131.35 25 -118.85 25 -118.85 -12.5
M -171.6 -25
L -184.1 -25 -184.1 12.5 -196.6 12.5 -196.6 -25 -209.1 -25 -209.1 25 -184.1 25 -184.1 31.25 -209.1 31.25 -209.1 43.75 -171.6 43.75 -171.6 -25
M -215.35 -25
L -240.35 -25 -240.35 -43.75 -252.85 -43.75 -252.85 25 -215.35 25 -215.35 -25
M -240.35 -12.5
L -227.85 -12.5 -227.85 12.5 -240.35 12.5 -240.35 -12.5
M 158.9 -12.5
L 171.4 -12.5 171.4 25 183.9 25 183.9 -25 146.4 -25 146.4 25 158.9 25 158.9 -12.5
M 246.4 -43.75
L 233.9 -43.75 233.9 25 246.4 25 246.4 -43.75
M 227.65 -25
L 190.15 -25 190.15 25 227.65 25 227.65 -25
M 202.65 -12.5
L 215.15 -12.5 215.15 12.5 202.65 12.5 202.65 -12.5
M 115.15 -12.5
L 115.15 -43.75 102.65 -43.75 102.65 25 115.15 25 115.15 0 127.65 0 127.65 25 140.15 25 140.15 -31.25 127.65 -31.25 127.65 -12.5 115.15 -12.5
M 37.4 -12.5
L 37.4 -43.75 24.9 -43.75 24.9 25 37.4 25 37.4 0 49.9 0 49.9 25 62.4 25 62.4 -31.25 49.9 -31.25 49.9 -12.5 37.4 -12.5
M 18.65 -12.5
L 18.65 -25 -18.85 -25 -18.85 25 -6.35 25 -6.35 -12.5 18.65 -12.5 Z"/>
</g>
</defs>

<g transform="matrix( 1, 0, 0, 1, 0,0) ">
<use xlink:href="#Layer0_0_FILL"/>
</g>
</svg>
