
<svg xmlns="http://www.w3.org/2000/svg" version="1.1" xmlns:xlink="http://www.w3.org/1999/xlink" preserveAspectRatio="none" x="0px" y="0px" width="720px" height="720px" viewBox="0 0 720 720">
<defs>
<g id="Layer0_0_FILL">
<path fill="#000000" stroke="none" d="
M 104.9 -33
L 104.9 -11 123.9 -11 123.9 33 145.9 33 145.9 -11 164.9 -11 164.9 -33 104.9 -33
M 94.9 -33
L 34.9 -33 34.9 33 56.9 33 56.9 22 64.9 22 72.9 30 72.9 33 94.9 33 94.9 22 83.9 11 94.9 0 94.9 -33
M 56.9 -8
L 72.9 -8 64.9 0 56.9 0 56.9 -8
M -15.1 -33
L -35.1 -13 -35.1 33 -13.1 33 -13.1 22 2.9 22 2.9 33 24.9 33 24.9 -33 -15.1 -33
M -13.1 -3
L -5.1 -11 2.9 -11 2.9 0 -13.1 0 -13.1 -3
M -105.1 -11
L -86.1 -11 -86.1 33 -64.1 33 -64.1 -11 -45.1 -11 -45.1 -33 -105.1 -33 -105.1 -11
M -175.1 -33
L -175.1 -11 -172.1 -11 -150.1 11 -175.1 11 -175.1 33 -115.1 33 -115.1 11 -118.1 11 -140.1 -11 -115.1 -11 -115.1 -33 -175.1 -33 Z"/>
</g>
</defs>

<g transform="matrix( 1, 0, 0, 1, 209,561) ">
<g transform="matrix( 1, 0, 0, 1, 0,0) ">
<use xlink:href="#Layer0_0_FILL"/>
</g>
</g>
</svg>
